<svg width="19" height="20" viewBox="0 0 19 20" fill="none" xmlns="http://www.w3.org/2000/svg">
<path d="M15.2649 13.0353L11.4507 16.8501L13.0793 18.4785L16.8935 14.6637L15.2649 13.0353Z" fill="white"/>
<path d="M10.4517 17.8556C10.4102 17.8971 10.3687 17.9593 10.3687 18.0216L10.0367 19.4946C9.97449 19.7436 10.2027 19.9718 10.4517 19.9095L11.9247 19.5776C11.9869 19.5568 12.0492 19.5361 12.0907 19.4946L12.5471 19.0382L10.9288 17.4199L10.4517 17.8556Z" fill="white"/>
<path d="M18.2111 12.8348L17.07 11.7145C16.9455 11.59 16.7173 11.59 16.5928 11.7145L15.8252 12.4821L17.4434 14.1003L18.2111 13.3327C18.3563 13.1875 18.3563 12.98 18.2111 12.8348Z" fill="white"/>
<path d="M14.2899 12.6276V1.03007C14.2899 0.573638 13.9164 0.200195 13.46 0.200195H1.50981C1.05337 0.200195 0.679932 0.573638 0.679932 1.03007V15.2624C0.679932 15.7188 1.05337 16.0923 1.50981 16.0923H10.8459L14.2899 12.6276ZM6.42681 3.00102H11.1363C11.406 3.00102 11.6135 3.22923 11.6135 3.4782C11.6135 3.7479 11.3853 3.95537 11.1363 3.95537H6.42681C6.1571 3.95537 5.94963 3.72716 5.94963 3.4782C5.92888 3.20849 6.1571 3.00102 6.42681 3.00102ZM6.42681 6.0923H11.1363C11.406 6.0923 11.6135 6.32051 11.6135 6.56947C11.6135 6.83918 11.3853 7.04665 11.1363 7.04665H6.42681C6.1571 7.04665 5.94963 6.81844 5.94963 6.56947C5.92888 6.32051 6.1571 6.0923 6.42681 6.0923ZM6.42681 9.22507H11.1363C11.406 9.22507 11.6135 9.45328 11.6135 9.70225C11.6135 9.97196 11.3853 10.1794 11.1363 10.1794H6.42681C6.1571 10.1794 5.94963 9.95121 5.94963 9.70225C5.92888 9.43254 6.1571 9.22507 6.42681 9.22507ZM4.18615 13.3122H3.83345C3.56374 13.3122 3.35627 13.084 3.35627 12.835C3.35627 12.5653 3.58449 12.3578 3.83345 12.3578H4.18615C4.45586 12.3578 4.66333 12.5861 4.66333 12.835C4.68407 13.084 4.45586 13.3122 4.18615 13.3122ZM4.18615 10.1794H3.83345C3.56374 10.1794 3.35627 9.95121 3.35627 9.70225C3.35627 9.43254 3.58449 9.22507 3.83345 9.22507H4.18615C4.45586 9.22507 4.66333 9.45328 4.66333 9.70225C4.68407 9.97196 4.45586 10.1794 4.18615 10.1794ZM4.18615 7.0674H3.83345C3.56374 7.0674 3.35627 6.83918 3.35627 6.59022C3.35627 6.32051 3.58449 6.11304 3.83345 6.11304H4.18615C4.45586 6.11304 4.66333 6.34126 4.66333 6.59022C4.68407 6.85993 4.45586 7.0674 4.18615 7.0674ZM4.18615 3.97612H3.83345C3.56374 3.97612 3.35627 3.7479 3.35627 3.49894C3.35627 3.22923 3.58449 3.02177 3.83345 3.02177H4.18615C4.45586 3.02177 4.66333 3.24998 4.66333 3.49894C4.68407 3.7479 4.45586 3.97612 4.18615 3.97612ZM5.92888 12.8143C5.92888 12.5446 6.1571 12.3371 6.40606 12.3371H11.1156C11.3853 12.3371 11.5928 12.5653 11.5928 12.8143C11.5928 13.084 11.3646 13.2914 11.1156 13.2914H6.42681C6.1571 13.3122 5.92888 13.084 5.92888 12.8143Z" fill="white"/>
</svg>
