<svg width="41" height="41" viewBox="0 0 41 41" fill="none" xmlns="http://www.w3.org/2000/svg">
<path d="M32.6892 14.1441C32.9697 13.8635 33.1273 13.483 33.1273 13.0862C33.1273 12.6895 32.9697 12.309 32.6892 12.0284L29.3885 8.72467C29.1076 8.44411 28.7267 8.28665 28.3296 8.28693C27.9326 8.28721 27.5519 8.44521 27.2713 8.72616C26.9908 9.00712 26.8333 9.38802 26.8336 9.78507C26.8339 10.1821 26.9919 10.5628 27.2728 10.8434L30.5735 14.1441C30.8541 14.4246 31.2346 14.5822 31.6314 14.5822C32.0281 14.5822 32.4087 14.4246 32.6892 14.1441ZM15.0844 29.6333C15.2273 29.7713 15.3413 29.9364 15.4197 30.1189C15.4981 30.3015 15.5394 30.4978 15.5411 30.6965C15.5428 30.8952 15.505 31.0922 15.4297 31.2761C15.3545 31.46 15.2434 31.627 15.1029 31.7675C14.9624 31.908 14.7954 32.0191 14.6115 32.0943C14.4276 32.1696 14.2306 32.2074 14.0319 32.2057C13.8332 32.204 13.6369 32.1627 13.4543 32.0843C13.2718 32.0059 13.1067 31.8919 12.9687 31.749L9.66794 28.4482C9.39538 28.166 9.24457 27.7881 9.24798 27.3958C9.25139 27.0035 9.40875 26.6282 9.68616 26.3508C9.96358 26.0733 10.3389 25.916 10.7312 25.9126C11.1235 25.9092 11.5014 26.06 11.7836 26.3325L15.0844 29.6333ZM39.3595 2.10526C38.988 1.73364 38.5469 1.43886 38.0614 1.23774C37.5759 1.03662 37.0556 0.933105 36.5301 0.933105C36.0046 0.933105 35.4843 1.03662 34.9988 1.23774C34.5133 1.43886 34.0722 1.73364 33.7007 2.10526L32.2344 3.57158L31.7376 3.08081C31.2239 2.56676 30.6041 2.17109 29.9216 1.92145C29.2391 1.67181 28.5103 1.57421 27.7861 1.63548C27.062 1.69675 26.3599 1.91542 25.7291 2.27619C25.0982 2.63696 24.5537 3.13114 24.1337 3.7242C22.8522 3.47379 21.5241 3.64171 20.3453 4.20321C19.1664 4.76471 18.1991 5.69008 17.586 6.84293C16.9729 7.99578 16.7463 9.3151 16.9398 10.6064C17.1332 11.8978 17.7364 13.0928 18.6604 14.0154L20.2255 15.5805L15.4016 20.4044L13.8365 18.8393C12.914 17.9157 11.7194 17.3128 10.4284 17.1194C9.1375 16.926 7.81858 17.1523 6.66596 17.765C5.51334 18.3777 4.58795 19.3443 4.02613 20.5226C3.46431 21.7008 3.29575 23.0283 3.54528 24.3096C2.95216 24.7299 2.45795 25.2747 2.09716 25.9058C1.73637 26.537 1.51771 27.2392 1.45644 27.9636C1.39517 28.688 1.49278 29.417 1.74244 30.0998C1.9921 30.7825 2.3878 31.4025 2.90189 31.9165L3.39566 32.4103L1.88145 33.9215C1.13105 34.6719 0.709473 35.6897 0.709473 36.7509C0.709473 37.8122 1.13105 38.8299 1.88145 39.5803C2.63186 40.3307 3.64963 40.7523 4.71086 40.7523C5.7721 40.7523 6.78986 40.3307 7.54027 39.5803L9.05447 38.0691L9.54824 38.5629C10.0624 39.0763 10.6824 39.4713 11.365 39.7204C12.0476 39.9695 12.7763 40.0667 13.5003 40.0052C14.2243 39.9436 14.9261 39.7248 15.5569 39.3641C16.1876 39.0034 16.732 38.5093 17.1522 37.9165C18.4337 38.1669 19.7618 37.999 20.9406 37.4375C22.1195 36.876 23.0867 35.9506 23.6999 34.7978C24.313 33.6449 24.5395 32.3256 24.3461 31.0343C24.1527 29.7429 23.5495 28.5479 22.6255 27.6253L21.0604 26.0632L25.8873 21.2393L27.4524 22.8044C28.375 23.7284 29.57 24.3316 30.8613 24.525C32.1527 24.7185 33.472 24.4919 34.6248 23.8788C35.7777 23.2657 36.7031 22.2984 37.2646 21.1195C37.8261 19.9407 37.994 18.6126 37.7436 17.3311C38.3367 16.9108 38.8309 16.366 39.1917 15.7349C39.5525 15.1038 39.7711 14.4015 39.8324 13.6771C39.8937 12.9527 39.7961 12.2237 39.5464 11.5409C39.2968 10.8582 38.9011 10.2382 38.387 9.72416L37.8932 9.23339L39.3595 7.76407C40.1091 7.01384 40.5302 5.9967 40.5302 4.93616C40.5302 3.87563 40.1091 2.85848 39.3595 2.10825V2.10526ZM35.7745 7.1147L34.3471 5.69027L35.8134 4.22395C35.9069 4.13002 36.0181 4.05544 36.1404 4.00446C36.2628 3.95348 36.394 3.9271 36.5265 3.92682C36.659 3.92654 36.7904 3.95238 36.9129 4.00284C37.0355 4.05331 37.1469 4.12743 37.2408 4.22095C37.3348 4.31448 37.4093 4.4256 37.4603 4.54795C37.5113 4.6703 37.5377 4.8015 37.538 4.93405C37.5382 5.06659 37.5124 5.1979 37.4619 5.32047C37.4115 5.44303 37.3374 5.55445 37.2438 5.64838L35.7745 7.1147ZM23.7686 19.1236L18.9447 23.9445L17.5173 22.5201L22.3412 17.6962L23.7686 19.1236ZM6.93878 35.9534L5.42457 37.4646C5.23445 37.6479 4.98002 37.7493 4.71596 37.747C4.45189 37.7447 4.19926 37.639 4.01233 37.4524C3.82541 37.2659 3.71911 37.0135 3.71627 36.7494C3.71343 36.4854 3.81428 36.2307 3.99715 36.0402L5.51135 34.526L6.93878 35.9534ZM26.794 5.19651C26.9797 5.01075 27.2001 4.86339 27.4427 4.76285C27.6853 4.66231 27.9454 4.61056 28.208 4.61056C28.4706 4.61056 28.7306 4.66231 28.9732 4.76285C29.2159 4.86339 29.4363 5.01075 29.6219 5.19651L36.2653 11.8399C36.5074 12.0816 36.6835 12.3814 36.7768 12.7105C36.8701 13.0397 36.8775 13.3873 36.7982 13.7201C36.719 14.0529 36.5558 14.3599 36.3242 14.6117C36.0926 14.8635 35.8003 15.0518 35.4753 15.1585C35.2749 15.2238 35.0905 15.3307 34.9343 15.4722C34.7781 15.6136 34.6535 15.7865 34.5688 15.9795C34.484 16.1724 34.441 16.3811 34.4425 16.5919C34.444 16.8026 34.49 17.0107 34.5775 17.2024C34.8785 17.8635 34.938 18.6093 34.7457 19.3097C34.5534 20.0102 34.1214 20.621 33.5251 21.0358C32.9288 21.4506 32.2058 21.643 31.4822 21.5796C30.7586 21.5161 30.0802 21.2009 29.5651 20.6887L20.7761 11.8997C20.2608 11.3858 19.9427 10.7071 19.8775 9.98231C19.8123 9.25753 20.0041 8.53289 20.4194 7.93531C20.8347 7.33772 21.4469 6.90526 22.149 6.71365C22.851 6.52205 23.5981 6.58351 24.2594 6.88727C24.4512 6.97528 24.6596 7.0217 24.8707 7.02346C25.0818 7.02523 25.2908 6.98231 25.4842 6.89751C25.6775 6.81272 25.8507 6.68798 25.9924 6.53149C26.1341 6.375 26.241 6.1903 26.3062 5.98952C26.4036 5.69024 26.5708 5.41842 26.794 5.19651ZM7.33379 20.955C7.91518 20.3737 8.70365 20.0472 9.52579 20.0472C10.3479 20.0472 11.1364 20.3737 11.7178 20.955L20.5068 29.744C21.0221 30.2578 21.3402 30.9366 21.4054 31.6614C21.4706 32.3862 21.2788 33.1108 20.8635 33.7084C20.4482 34.306 19.8359 34.7384 19.1339 34.93C18.4319 35.1217 17.6848 35.0602 17.0235 34.7564C16.8316 34.6684 16.6233 34.622 16.4122 34.6202C16.2011 34.6185 15.992 34.6614 15.7987 34.7462C15.6054 34.831 15.4322 34.9557 15.2905 35.1122C15.1488 35.2687 15.0419 35.4534 14.9766 35.6542C14.87 35.9789 14.682 36.2709 14.4306 36.5024C14.1792 36.7339 13.8727 36.8972 13.5403 36.9767C13.2079 37.0562 12.8606 37.0492 12.5317 36.9566C12.2027 36.8639 11.9029 36.6885 11.6609 36.4472L5.01759 29.8008C4.77621 29.559 4.60074 29.2595 4.50786 28.9307C4.41498 28.6019 4.40779 28.2548 4.48698 27.9225C4.56617 27.5901 4.7291 27.2835 4.96027 27.032C5.19143 26.7804 5.48313 26.5921 5.80761 26.4852C6.00839 26.4199 6.19309 26.313 6.34958 26.1713C6.50607 26.0296 6.63081 25.8564 6.7156 25.6631C6.8004 25.4698 6.84332 25.2607 6.84155 25.0496C6.83979 24.8385 6.79337 24.6302 6.70536 24.4383C6.44258 23.8628 6.36195 23.2208 6.47427 22.5983C6.58658 21.9757 6.88648 21.4024 7.33379 20.955Z" fill="white" fill-opacity="0.8"/>
</svg>
