<svg width="255" height="254" viewBox="0 0 255 254" fill="none" xmlns="http://www.w3.org/2000/svg">
<path d="M210.578 117.418C215.959 163.291 183.134 204.84 137.261 210.221C91.3882 215.602 49.839 182.777 44.4582 136.904C39.0773 91.031 71.9026 49.4817 117.775 44.1009C163.648 38.7201 205.197 71.5453 210.578 117.418ZM56.1975 135.527C60.8179 174.916 96.4947 203.102 135.884 198.482C175.273 193.861 203.459 158.184 198.839 118.795C194.219 79.4058 158.542 51.22 119.152 55.8403C79.7631 60.4606 51.5772 96.1375 56.1975 135.527Z" fill="#CFCFCF"/>
<path d="M49.3927 156.999C45.4743 146.739 43.6151 135.808 43.9212 124.83C44.2272 113.852 46.6926 103.042 51.1765 93.0163C55.6604 82.991 62.0751 73.947 70.0542 66.4007C78.0333 58.8544 87.4207 52.9537 97.6803 49.0353C107.94 45.1169 118.871 43.2577 129.849 43.5638C140.827 43.8698 151.637 46.3352 161.663 50.8191C171.688 55.303 180.732 61.7177 188.278 69.6968C195.824 77.6759 201.725 87.0633 205.644 97.3229L181.403 106.581C178.7 99.5048 174.63 93.0302 169.425 87.5268C164.221 82.0235 157.983 77.5992 151.068 74.5065C144.154 71.4139 136.697 69.7135 129.126 69.5024C121.554 69.2913 114.015 70.5736 106.938 73.2762C99.8622 75.9788 93.3876 80.0487 87.8842 85.2535C82.3809 90.4583 77.9566 96.6961 74.8639 103.611C71.7713 110.525 70.0709 117.981 69.8598 125.553C69.6487 133.125 70.931 140.664 73.6336 147.741L49.3927 156.999Z" fill="#FFA5A0"/>
<path d="M54.2456 86.8491C59.5393 77.2268 66.6765 68.7414 75.2496 61.8774C83.8227 55.0134 93.6638 49.9052 104.211 46.8445C114.758 43.7838 125.805 42.8304 136.721 44.0389C147.637 45.2475 158.207 48.5941 167.83 53.8879C177.452 59.1817 185.937 66.3189 192.801 74.892C199.665 83.4651 204.774 93.3062 207.834 103.853C210.895 114.401 211.848 125.448 210.64 136.363C209.431 147.279 206.085 157.85 200.791 167.472L169.829 150.438C172.885 144.882 174.818 138.778 175.516 132.475C176.214 126.171 175.663 119.793 173.896 113.702C172.128 107.612 169.179 101.929 165.215 96.9787C161.252 92.0283 156.352 87.907 150.796 84.8502C145.239 81.7934 139.135 79.8609 132.832 79.163C126.529 78.4652 120.15 79.0157 114.06 80.7831C107.969 82.5504 102.287 85.5001 97.3364 89.4636C92.3859 93.4272 88.2647 98.327 85.2078 103.883L54.2456 86.8491Z" fill="#0F296D"/>
<path d="M185.42 66.8181C193.345 74.4219 199.694 83.5121 204.105 93.5696C208.516 103.627 210.903 114.455 211.13 125.435C211.356 136.415 209.418 147.332 205.426 157.563C201.433 167.794 195.465 177.139 187.861 185.063C180.257 192.987 171.167 199.336 161.109 203.747C151.052 208.159 140.224 210.546 129.244 210.772C118.264 210.999 107.347 209.061 97.1157 205.068C86.8847 201.076 77.5403 195.107 69.616 187.503L97.7962 158.135C101.864 162.039 106.66 165.102 111.912 167.152C117.164 169.201 122.768 170.196 128.404 170.08C134.04 169.963 139.598 168.738 144.761 166.474C149.924 164.209 154.59 160.95 158.493 156.883C162.396 152.815 165.46 148.018 167.509 142.767C169.559 137.515 170.554 131.911 170.437 126.275C170.321 120.639 169.096 115.081 166.831 109.918C164.567 104.755 161.308 100.089 157.24 96.1859L185.42 66.8181Z" fill="#F1554C"/>
</svg>
