<svg width="122" height="122" viewBox="0 0 122 122" fill="none" xmlns="http://www.w3.org/2000/svg">
<g filter="url(#filter0_d_108_395)">
<rect x="21" y="17" width="80" height="80" rx="20" fill="url(#paint0_radial_108_395)" shape-rendering="crispEdges"/>
</g>
<g filter="url(#filter1_d_108_395)">
<path d="M71.8792 56.8762C69.5331 54.2762 66.3227 52.9143 62.8653 52.9143H59.2844C58.1731 52.9143 57.0618 52.419 56.321 51.5524C55.5801 50.6857 55.2097 49.5714 55.3331 48.4571C55.5801 46.4762 57.4323 44.8667 59.5314 44.8667H63.7296C64.9644 44.8667 65.9523 45.7333 66.1992 46.8476C66.3227 47.5905 67.0635 48.2095 67.8044 48.2095H72.6201C73.114 48.2095 73.6079 47.9619 73.8548 47.5905C74.2253 47.219 74.3487 46.7238 74.2253 46.3524C73.7314 41.4 69.9035 37.5619 64.9644 36.819V32.7333C64.9644 31.7429 64.2236 31 63.2357 31H58.5436C57.5557 31 56.8149 31.7429 56.8149 32.7333V36.9429C50.641 38.0571 46.4427 43.7524 47.0601 50.0667C47.6775 56.2571 53.234 60.9619 59.6549 60.9619H62.7418C63.8531 60.9619 64.9644 61.4571 65.7053 62.3238C66.4462 63.1905 66.8166 64.3048 66.6931 65.4191C66.4462 67.4 64.594 69.0095 62.4949 69.0095H58.2966C57.0618 69.0095 56.074 68.1429 55.8271 67.0286C55.7036 66.2857 54.9627 65.7905 54.2218 65.7905H49.4062C48.9123 65.7905 48.4184 66.0381 48.1714 66.4095C47.801 66.781 47.6775 67.2762 47.801 67.6476C48.2949 72.6 52.1227 76.4381 57.0618 77.181V81.2667C57.0618 82.2571 57.8027 83 58.7905 83H63.4827C64.4705 83 65.2114 82.2571 65.2114 81.2667V77.0571C70.5209 75.9429 74.4722 71.6095 74.9661 66.4095C75.2131 62.6952 74.1018 59.3524 71.8792 56.8762Z" fill="white"/>
</g>
<defs>
<filter id="filter0_d_108_395" x="0" y="0" width="122" height="122" filterUnits="userSpaceOnUse" color-interpolation-filters="sRGB">
<feFlood flood-opacity="0" result="BackgroundImageFix"/>
<feColorMatrix in="SourceAlpha" type="matrix" values="0 0 0 0 0 0 0 0 0 0 0 0 0 0 0 0 0 0 127 0" result="hardAlpha"/>
<feOffset dy="4"/>
<feGaussianBlur stdDeviation="10.5"/>
<feComposite in2="hardAlpha" operator="out"/>
<feColorMatrix type="matrix" values="0 0 0 0 0.0627451 0 0 0 0 0.164706 0 0 0 0 0.427451 0 0 0 0.29 0"/>
<feBlend mode="normal" in2="BackgroundImageFix" result="effect1_dropShadow_108_395"/>
<feBlend mode="normal" in="SourceGraphic" in2="effect1_dropShadow_108_395" result="shape"/>
</filter>
<filter id="filter1_d_108_395" x="32" y="20" width="58" height="82" filterUnits="userSpaceOnUse" color-interpolation-filters="sRGB">
<feFlood flood-opacity="0" result="BackgroundImageFix"/>
<feColorMatrix in="SourceAlpha" type="matrix" values="0 0 0 0 0 0 0 0 0 0 0 0 0 0 0 0 0 0 127 0" result="hardAlpha"/>
<feOffset dy="4"/>
<feGaussianBlur stdDeviation="7.5"/>
<feComposite in2="hardAlpha" operator="out"/>
<feColorMatrix type="matrix" values="0 0 0 0 0 0 0 0 0 0 0 0 0 0 0 0 0 0 0.25 0"/>
<feBlend mode="normal" in2="BackgroundImageFix" result="effect1_dropShadow_108_395"/>
<feBlend mode="normal" in="SourceGraphic" in2="effect1_dropShadow_108_395" result="shape"/>
</filter>
<radialGradient id="paint0_radial_108_395" cx="0" cy="0" r="1" gradientUnits="userSpaceOnUse" gradientTransform="translate(114.5 10.5) rotate(138.998) scale(131.843)">
<stop offset="0.025" stop-color="#1D48B5"/>
<stop offset="0.932292" stop-color="#102A6D"/>
<stop offset="1" stop-color="#102A6D" stop-opacity="0"/>
</radialGradient>
</defs>
</svg>
