<svg width="122" height="122" viewBox="0 0 122 122" fill="none" xmlns="http://www.w3.org/2000/svg">
<g filter="url(#filter0_d_108_403)">
<rect x="21" y="17" width="80" height="80" rx="20" fill="url(#paint0_radial_108_403)" shape-rendering="crispEdges"/>
</g>
<g filter="url(#filter1_d_108_403)">
<path d="M61.5051 46.6118C57.1996 46.611 53.6961 43.1246 53.6841 38.8277C53.6721 34.5821 57.1559 31.0538 61.3356 31.0007C65.8483 30.9433 69.3167 34.5213 69.3209 38.8268C69.3244 43.1229 65.8081 46.6127 61.5051 46.6118Z" fill="white"/>
<path d="M74.2023 63.4465C73.7101 60.1852 72.8567 57.0318 71.3596 54.0804C70.3924 52.1733 69.1743 50.4597 67.3622 49.2434C66.2195 48.4756 64.9681 48.0724 63.6165 48.0048C63.5053 47.9988 63.3931 47.9954 63.2801 47.9945C63.085 48.0065 62.8898 48.0536 62.6835 48.1469C61.3773 48.7409 60.0523 48.7409 58.7349 48.1289C58.5518 48.0433 58.3309 47.9937 58.1263 47.9937H58.0065C56.5034 47.9979 55.1202 48.402 53.867 49.2434C52.055 50.4597 50.8369 52.1733 49.8697 54.0804C48.3717 57.0318 47.5192 60.1852 47.027 63.4465C46.849 64.6243 47.5654 65.618 48.7663 65.8183C49.7884 65.9878 50.8292 65.1806 51.0175 64.0953C51.0364 63.9883 51.0552 63.8821 51.0723 63.776C51.1006 63.6177 51.1271 63.4593 51.1562 63.3009C51.2692 62.6658 51.389 62.0315 51.5397 61.405C52.0704 59.2111 52.7748 57.078 53.9124 55.1102C53.9407 55.0631 53.9689 55.0152 54.0006 54.9698C54.0528 54.8868 54.1101 54.8063 54.1632 54.7233C54.1897 54.7387 54.2154 54.7541 54.242 54.7686V54.8191V55.7564C54.242 56.7665 54.2411 57.7748 54.2437 58.7849V64.6363H54.2454C54.2428 67.3813 54.2402 70.1256 54.2402 72.8707C54.3199 74.4996 54.236 76.1379 54.2736 77.7702C54.3318 80.3381 55.5396 82.395 57.5306 83.2442C57.7566 83.3409 57.9928 83.4222 58.2393 83.4864C59.2177 83.7423 60.2911 83.6867 61.3217 83.6841C62.2299 83.6816 63.0482 83.5369 63.762 83.2621C65.5733 82.5679 66.7186 81.0486 66.9822 78.9249C66.9916 74.1615 66.9865 69.3997 66.9831 64.6363H66.9848V58.7849C66.9856 58.582 66.9856 58.38 66.9856 58.1771C66.9873 57.4821 66.9865 56.7887 66.9865 56.0937V54.7695C67.013 54.7541 67.0387 54.7387 67.0652 54.7241C67.1491 54.8534 67.239 54.9784 67.316 55.111C68.4536 57.078 69.1589 59.2111 69.6888 61.4058C69.8719 62.1634 70.0089 62.932 70.1424 63.7007C70.1655 63.8325 70.1878 63.9643 70.2109 64.0961C70.3992 65.1815 71.4401 65.9887 72.4621 65.8192C73.663 65.618 74.3803 64.6243 74.2023 63.4465Z" fill="white"/>
</g>
<defs>
<filter id="filter0_d_108_403" x="0" y="0" width="122" height="122" filterUnits="userSpaceOnUse" color-interpolation-filters="sRGB">
<feFlood flood-opacity="0" result="BackgroundImageFix"/>
<feColorMatrix in="SourceAlpha" type="matrix" values="0 0 0 0 0 0 0 0 0 0 0 0 0 0 0 0 0 0 127 0" result="hardAlpha"/>
<feOffset dy="4"/>
<feGaussianBlur stdDeviation="10.5"/>
<feComposite in2="hardAlpha" operator="out"/>
<feColorMatrix type="matrix" values="0 0 0 0 0.0627451 0 0 0 0 0.164706 0 0 0 0 0.427451 0 0 0 0.29 0"/>
<feBlend mode="normal" in2="BackgroundImageFix" result="effect1_dropShadow_108_403"/>
<feBlend mode="normal" in="SourceGraphic" in2="effect1_dropShadow_108_403" result="shape"/>
</filter>
<filter id="filter1_d_108_403" x="32" y="20" width="57.2295" height="82.6909" filterUnits="userSpaceOnUse" color-interpolation-filters="sRGB">
<feFlood flood-opacity="0" result="BackgroundImageFix"/>
<feColorMatrix in="SourceAlpha" type="matrix" values="0 0 0 0 0 0 0 0 0 0 0 0 0 0 0 0 0 0 127 0" result="hardAlpha"/>
<feOffset dy="4"/>
<feGaussianBlur stdDeviation="7.5"/>
<feComposite in2="hardAlpha" operator="out"/>
<feColorMatrix type="matrix" values="0 0 0 0 0 0 0 0 0 0 0 0 0 0 0 0 0 0 0.25 0"/>
<feBlend mode="normal" in2="BackgroundImageFix" result="effect1_dropShadow_108_403"/>
<feBlend mode="normal" in="SourceGraphic" in2="effect1_dropShadow_108_403" result="shape"/>
</filter>
<radialGradient id="paint0_radial_108_403" cx="0" cy="0" r="1" gradientUnits="userSpaceOnUse" gradientTransform="translate(114.5 10.5) rotate(138.998) scale(131.843)">
<stop offset="0.025" stop-color="#375DBE"/>
<stop offset="0.932292" stop-color="#102A6D"/>
<stop offset="1" stop-color="#102A6D" stop-opacity="0"/>
</radialGradient>
</defs>
</svg>
