<svg width="122" height="122" viewBox="0 0 122 122" fill="none" xmlns="http://www.w3.org/2000/svg">
<g filter="url(#filter0_d_108_380)">
<rect x="21" y="17" width="80" height="80" rx="20" fill="url(#paint0_radial_108_380)" shape-rendering="crispEdges"/>
</g>
<g filter="url(#filter1_d_108_380)">
<path d="M67.1399 63.433V58.6825C67.0793 58.6825 66.5598 58.6818 66.6115 58.6825H66.5815C65.9105 58.6743 65.4906 58.4951 65.0917 58.3263C64.6982 58.1525 64.3673 57.9652 64.0759 57.7992L63.9577 57.7319C63.4085 57.4185 62.8411 57.094 62.2192 56.85C61.9535 56.7453 61.7199 56.5943 61.5197 56.4126C61.4196 56.408 61.3195 56.4009 61.2198 56.4009C59.5145 56.4091 58.3911 57.0466 57.2019 57.7212C57.0039 57.8334 56.8062 57.9452 56.6074 58.0539L56.4361 58.1397C55.9813 58.3694 55.4146 58.6551 54.5093 58.6818H54.5018H54.4761C54.4744 58.6818 54.4726 58.6814 54.4704 58.6814L54.5016 64.1194L54.4585 77.2673C54.3335 78.8028 56.7666 82.138 58.3013 82.263C59.8361 82.388 61.2271 77.2656 61.3521 75.7302V67.038L61.3609 66.8509L61.3521 75.7302C61.4775 77.266 62.1463 83.157 63.6813 83.0316C65.2164 82.9066 67.2653 78.8028 67.1399 77.2673L67.1399 63.433Z" fill="white"/>
<path fill-rule="evenodd" clip-rule="evenodd" d="M58.2696 46.9787C58.9105 47.2716 59.6227 47.4353 60.3733 47.4353C61.1821 47.4353 61.9461 47.2454 62.6244 46.9087L65.0159 47.2884L65.0181 47.3002C66.6849 47.3123 68.1527 48.0378 69.0406 49.1156C69.9578 50.2104 70.3385 51.5393 70.3421 52.8073C70.3403 53.6685 70.1651 54.5204 69.7793 55.3076C69.3954 56.0876 68.7717 56.8227 67.8817 57.2722C67.518 57.4567 67.1113 57.5375 66.7622 57.5375H66.7476C66.1585 57.5304 65.7393 57.3701 65.3842 57.2198C65.0299 57.0634 64.7263 56.8918 64.4213 56.7195L64.4194 56.7183L64.4174 56.7172C63.8863 56.4138 63.3465 56.1054 62.7528 55.8479C63.8473 55.8097 64.7844 54.9863 64.9486 53.8957C65.0031 53.5317 64.9664 53.1752 64.8596 52.8468C65.1954 53.0145 65.4985 53.1812 65.7657 53.3319C66.0602 53.5007 66.3192 53.6485 66.5175 53.7561C66.5257 53.7415 66.5339 53.7255 66.5421 53.7094L66.5421 53.7094C66.6515 53.4929 66.7341 53.1595 66.7316 52.8069C66.7355 52.2798 66.5535 51.7551 66.2835 51.4456C66.1325 51.2818 65.973 51.145 65.7375 51.0488L66.1037 52.9536C66.072 52.9355 66.0417 52.918 66.0089 52.8995C65.5452 52.6381 65.0384 52.3667 64.4603 52.1117C64.1109 51.6782 63.6069 51.3676 63.0146 51.2786C62.4455 51.1931 61.8745 51.1496 61.3 51.1496C59.4939 51.1496 57.7462 51.6091 55.9589 52.5551C55.6444 52.7203 55.3574 52.8835 55.1159 53.0213L54.6603 53.3066C54.6942 53.4622 54.7419 53.6008 54.7968 53.7094C54.8049 53.7258 54.8135 53.7418 54.8217 53.7568C54.9501 53.6876 55.1004 53.6017 55.2705 53.5046C55.5329 53.3546 55.8423 53.1779 56.1901 52.9946C57.395 52.3571 59.1224 51.6422 61.3186 51.6461C61.8357 51.6461 62.3767 51.685 62.9402 51.7697C63.9261 51.9179 64.6049 52.8361 64.4568 53.8223C64.3086 54.8078 63.3897 55.4867 62.4042 55.3385C62.0163 55.2805 61.6569 55.2556 61.3186 55.2556C59.4813 55.2638 58.2522 55.9614 57.0565 56.64C56.8605 56.7512 56.6654 56.862 56.4686 56.9691C56.416 56.9949 56.3633 57.0215 56.3098 57.0484C55.8716 57.2692 55.387 57.5133 54.5934 57.5368C54.587 57.5372 54.5806 57.5372 54.5745 57.5372C54.228 57.5372 53.8216 57.4567 53.4583 57.2715C52.5696 56.8238 51.9442 56.0886 51.5627 55.3072C51.5586 55.2989 51.5554 55.2905 51.5521 55.282C51.5492 55.2745 51.5463 55.2669 51.5428 55.2595C51.1727 54.4859 51.0018 53.6507 51 52.8069C51.0032 51.5396 51.3843 50.2101 52.3021 49.1152C52.3271 49.0849 52.3547 49.0564 52.3824 49.028C52.4005 49.0092 52.4187 48.9905 52.4361 48.9713C53.2909 48.0225 54.6058 47.3785 56.1039 47.3094C56.1226 47.3072 56.1411 47.3047 56.1596 47.3022C56.2104 47.2953 56.261 47.2884 56.3137 47.2884L58.2696 46.9787Z" fill="white"/>
<path d="M65.0799 44.7859C67.2484 43.3389 68.6773 40.8725 68.6773 38.0697C68.6773 33.6132 65.0651 30 60.6074 30C56.1507 30 52.5374 33.6132 52.5374 38.0697C52.5374 40.8719 53.9668 43.3389 56.1354 44.7859C57.4159 45.6399 58.953 46.14 60.6074 46.14C62.2622 46.14 63.7993 45.6399 65.0799 44.7859Z" fill="white"/>
<path d="M67.1397 76.883C67.1397 80.7032 64.8113 83.8001 60.9911 83.8001C57.1709 83.8001 54.4583 80.7032 54.4583 76.883C54.4583 73.0627 57.1709 69.9658 60.9911 69.9658C64.8113 69.9658 67.1397 73.0627 67.1397 76.883Z" fill="white"/>
</g>
<defs>
<filter id="filter0_d_108_380" x="0" y="0" width="122" height="122" filterUnits="userSpaceOnUse" color-interpolation-filters="sRGB">
<feFlood flood-opacity="0" result="BackgroundImageFix"/>
<feColorMatrix in="SourceAlpha" type="matrix" values="0 0 0 0 0 0 0 0 0 0 0 0 0 0 0 0 0 0 127 0" result="hardAlpha"/>
<feOffset dy="4"/>
<feGaussianBlur stdDeviation="10.5"/>
<feComposite in2="hardAlpha" operator="out"/>
<feColorMatrix type="matrix" values="0 0 0 0 0.0627451 0 0 0 0 0.164706 0 0 0 0 0.427451 0 0 0 0.29 0"/>
<feBlend mode="normal" in2="BackgroundImageFix" result="effect1_dropShadow_108_380"/>
<feBlend mode="normal" in="SourceGraphic" in2="effect1_dropShadow_108_380" result="shape"/>
</filter>
<filter id="filter1_d_108_380" x="36" y="19" width="49.342" height="83.8003" filterUnits="userSpaceOnUse" color-interpolation-filters="sRGB">
<feFlood flood-opacity="0" result="BackgroundImageFix"/>
<feColorMatrix in="SourceAlpha" type="matrix" values="0 0 0 0 0 0 0 0 0 0 0 0 0 0 0 0 0 0 127 0" result="hardAlpha"/>
<feOffset dy="4"/>
<feGaussianBlur stdDeviation="7.5"/>
<feComposite in2="hardAlpha" operator="out"/>
<feColorMatrix type="matrix" values="0 0 0 0 0 0 0 0 0 0 0 0 0 0 0 0 0 0 0.25 0"/>
<feBlend mode="normal" in2="BackgroundImageFix" result="effect1_dropShadow_108_380"/>
<feBlend mode="normal" in="SourceGraphic" in2="effect1_dropShadow_108_380" result="shape"/>
</filter>
<radialGradient id="paint0_radial_108_380" cx="0" cy="0" r="1" gradientUnits="userSpaceOnUse" gradientTransform="translate(114.5 10.5) rotate(138.998) scale(131.843)">
<stop offset="0.025" stop-color="#375DBE"/>
<stop offset="0.932292" stop-color="#102A6D"/>
<stop offset="1" stop-color="#102A6D" stop-opacity="0"/>
</radialGradient>
</defs>
</svg>
