<svg width="109" height="33" viewBox="0 0 109 33" fill="none" xmlns="http://www.w3.org/2000/svg">
<rect x="0.660234" y="1.29988" width="107.52" height="31.08" rx="7.98" stroke="#C4C4C4" stroke-opacity="0.36" stroke-width="0.84"/>
<path d="M87.6001 15.1602L91.3801 18.9402L95.1601 15.1602" stroke="#E5E5E5" stroke-width="0.84" stroke-linecap="round"/>
<path d="M19.0192 12.4269V18.3187C19.0192 19.0478 18.7958 19.624 18.3489 20.0474C17.9099 20.4707 17.3297 20.6824 16.6084 20.6824C15.8871 20.6824 15.3031 20.4707 14.8562 20.0474C14.4171 19.624 14.1976 19.0478 14.1976 18.3187H15.55C15.5579 18.6793 15.648 18.9655 15.8205 19.1771C16.0008 19.3888 16.2635 19.4947 16.6084 19.4947C16.9534 19.4947 17.216 19.3888 17.3963 19.1771C17.5767 18.9576 17.6668 18.6715 17.6668 18.3187V12.4269H19.0192ZM27.0684 14.1203V20.6001H25.7277V19.8357C25.5161 20.1023 25.2377 20.3139 24.8928 20.4707C24.5557 20.6197 24.195 20.6942 23.8109 20.6942C23.3013 20.6942 22.8426 20.5883 22.4349 20.3767C22.0351 20.165 21.7176 19.8514 21.4824 19.4359C21.255 19.0203 21.1413 18.5186 21.1413 17.9306V14.1203H22.4702V17.7307C22.4702 18.3108 22.6153 18.7577 22.9053 19.0713C23.1954 19.3771 23.5913 19.5299 24.0931 19.5299C24.5949 19.5299 24.9908 19.3771 25.2809 19.0713C25.5788 18.7577 25.7277 18.3108 25.7277 17.7307V14.1203H27.0684ZM32.1065 14.0145C32.6161 14.0145 33.0709 14.1203 33.4707 14.332C33.8784 14.5437 34.1959 14.8573 34.4233 15.2728C34.6506 15.6883 34.7643 16.1901 34.7643 16.7781V20.6001H33.4354V16.978C33.4354 16.3979 33.2904 15.9549 33.0003 15.6491C32.7102 15.3355 32.3143 15.1787 31.8125 15.1787C31.3108 15.1787 30.9109 15.3355 30.613 15.6491C30.3229 15.9549 30.1779 16.3979 30.1779 16.978V20.6001H28.8373V14.1203H30.1779V14.8612C30.3974 14.5947 30.6757 14.3869 31.0129 14.2379C31.3578 14.089 31.7224 14.0145 32.1065 14.0145ZM42.4132 17.2015C42.4132 17.4445 42.3975 17.664 42.3661 17.86H37.4152C37.4544 18.3775 37.6464 18.793 37.9914 19.1066C38.3364 19.4202 38.7597 19.577 39.2615 19.577C39.9828 19.577 40.4924 19.2751 40.7903 18.6715H42.2368C42.0408 19.2673 41.684 19.7573 41.1666 20.1415C40.657 20.5178 40.022 20.7059 39.2615 20.7059C38.6421 20.7059 38.0855 20.5687 37.5916 20.2943C37.1055 20.0121 36.7213 19.6201 36.4391 19.1183C36.1647 18.6087 36.0275 18.0207 36.0275 17.3543C36.0275 16.6879 36.1608 16.1039 36.4273 15.6021C36.7017 15.0925 37.082 14.7005 37.568 14.4261C38.062 14.1517 38.6264 14.0145 39.2615 14.0145C39.873 14.0145 40.4179 14.1478 40.8961 14.4143C41.3744 14.6809 41.7468 15.0572 42.0133 15.5433C42.2799 16.0215 42.4132 16.5743 42.4132 17.2015ZM41.0137 16.7781C41.0059 16.2842 40.8295 15.8883 40.4845 15.5903C40.1396 15.2924 39.7123 15.1435 39.2027 15.1435C38.7401 15.1435 38.3442 15.2924 38.0149 15.5903C37.6856 15.8804 37.4896 16.2763 37.4269 16.7781H41.0137ZM53.2201 15.7785V16.9075H46.9285V15.7785H53.2201ZM62.6254 12.4269V18.3187C62.6254 19.0478 62.402 19.624 61.9551 20.0474C61.516 20.4707 60.9359 20.6824 60.2146 20.6824C59.4933 20.6824 58.9092 20.4707 58.4624 20.0474C58.0233 19.624 57.8038 19.0478 57.8038 18.3187H59.1562C59.164 18.6793 59.2542 18.9655 59.4267 19.1771C59.607 19.3888 59.8696 19.4947 60.2146 19.4947C60.5596 19.4947 60.8222 19.3888 61.0025 19.1771C61.1828 18.9576 61.273 18.6715 61.273 18.3187V12.4269H62.6254ZM70.6746 14.1203V20.6001H69.3339V19.8357C69.1222 20.1023 68.8439 20.3139 68.499 20.4707C68.1618 20.6197 67.8012 20.6942 67.417 20.6942C66.9074 20.6942 66.4488 20.5883 66.0411 20.3767C65.6413 20.165 65.3238 19.8514 65.0886 19.4359C64.8612 19.0203 64.7475 18.5186 64.7475 17.9306V14.1203H66.0764V17.7307C66.0764 18.3108 66.2214 18.7577 66.5115 19.0713C66.8016 19.3771 67.1975 19.5299 67.6993 19.5299C68.201 19.5299 68.597 19.3771 68.887 19.0713C69.185 18.7577 69.3339 18.3108 69.3339 17.7307V14.1203H70.6746ZM73.7841 11.8977V20.6001H72.4434V11.8977H73.7841ZM81.3772 14.1203L77.4023 23.6459H76.0146L77.3317 20.4943L74.7798 14.1203H76.2733L78.0961 19.0595L79.9895 14.1203H81.3772Z" fill="#393D54"/>
</svg>
