<svg width="5" height="15" viewBox="0 0 5 15" fill="none" xmlns="http://www.w3.org/2000/svg">
<path d="M2.35993 5.79977C1.43593 5.79977 0.679932 6.55577 0.679932 7.47977C0.679932 8.40377 1.43593 9.15977 2.35993 9.15977C3.28393 9.15977 4.03993 8.40377 4.03993 7.47977C4.03993 6.55577 3.28393 5.79977 2.35993 5.79977ZM2.35993 0.759766C1.43593 0.759766 0.679932 1.51577 0.679932 2.43977C0.679932 3.36377 1.43593 4.11977 2.35993 4.11977C3.28393 4.11977 4.03993 3.36377 4.03993 2.43977C4.03993 1.51577 3.28393 0.759766 2.35993 0.759766ZM2.35993 10.8398C1.43593 10.8398 0.679932 11.5958 0.679932 12.5198C0.679932 13.4438 1.43593 14.1998 2.35993 14.1998C3.28393 14.1998 4.03993 13.4438 4.03993 12.5198C4.03993 11.5958 3.28393 10.8398 2.35993 10.8398Z" fill="#393D54"/>
</svg>
