<svg width="27" height="24" viewBox="0 0 27 24" fill="none" xmlns="http://www.w3.org/2000/svg">
<path d="M10.5001 10.662C9.93781 9.95543 9.59971 9.07663 9.59971 8.12154C9.59971 5.80454 11.567 3.91992 13.985 3.91992C16.403 3.91992 18.3702 5.80454 18.3702 8.12154C18.3702 9.07663 18.0321 9.95543 17.4698 10.662C16.668 11.6695 15.4063 12.3236 13.985 12.3236C12.5637 12.3236 11.302 11.6695 10.5001 10.662ZM6.52724 4.99586L6.22431 4.6595L4.99574 5.67535L5.29867 6.01171L6.52724 4.99586ZM4.38322 4.02476L3.91948 4.01608L3.88211 5.81966L4.34585 5.82834L4.38322 4.02476ZM0.703874 9.56353L0.928479 9.57587C1.34014 9.59848 1.69298 9.29704 1.71654 8.90262L1.74239 8.46969L2.62813 8.51825L2.40072 11.7819C2.35273 12.4706 2.89673 13.0663 3.61556 13.1124L7.97535 13.7374V18.5611C7.97535 19.1348 8.46079 19.5999 9.05961 19.5999H21.8122C22.4 19.5999 23.1389 18.794 22.7857 18.1037L19.7109 12.0952C19.5996 11.8776 19.4446 11.6948 19.2621 11.5493C18.9362 11.2042 18.5205 10.9377 18.0493 10.7851C17.9407 10.9367 17.8229 11.0817 17.6972 11.22C17.3707 11.5788 16.9889 11.8901 16.5645 12.1414C15.8138 12.5857 14.9303 12.8427 13.985 12.8427C12.6682 12.8427 11.4726 12.3431 10.5881 11.5337C10.3407 11.3072 10.1162 11.0579 9.92197 10.7868L9.92066 10.7851C9.72089 10.6644 9.49197 10.5803 9.24315 10.5457L5.14172 9.97523L5.23329 8.66106L6.13888 8.7107L6.11301 9.14376C6.08945 9.53809 6.40398 9.87606 6.81554 9.89866L7.04021 9.911C7.45188 9.93361 7.80472 9.63218 7.82829 9.23775L7.9463 7.26238C7.96986 6.86802 7.65525 6.53005 7.24364 6.50757L7.01876 6.49528C6.60722 6.4728 6.25455 6.77418 6.231 7.16848L6.20515 7.60127L5.17088 7.54458C4.98657 7.12006 4.56843 6.80703 4.05721 6.77421C3.53407 6.74064 3.06922 7.00688 2.83229 7.41641L1.80867 7.36026L1.83452 6.9274C1.85808 6.53304 1.54352 6.19504 1.13192 6.17243L0.907321 6.16009C0.495654 6.13748 0.142809 6.43892 0.119244 6.83334L0.00124176 8.80851C-0.0223199 9.2029 0.29225 9.54092 0.703874 9.56353ZM3.23916 5.64199L2.05362 4.58029L1.73681 4.90472L2.92235 5.96641L3.23916 5.64199Z" fill="white"/>
</svg>
