<svg width="18" height="22" viewBox="0 0 18 22" fill="none" xmlns="http://www.w3.org/2000/svg">
<path d="M11.0859 19.0799H6.65219C6.48884 19.0799 6.34883 19.1732 6.25549 19.3132C6.16215 19.4532 6.16215 19.6399 6.25549 19.7799C6.37217 19.9899 7.53894 21.8799 8.86906 21.8799C10.1992 21.8799 11.3659 19.9899 11.4826 19.7799C11.576 19.6399 11.576 19.4532 11.4826 19.3132C11.4126 19.1732 11.2493 19.0799 11.0859 19.0799ZM16.7331 15.6265L15.8697 14.2499C15.6597 13.8999 15.4263 13.2232 15.403 12.8032L15.0296 8.01988C14.3996 8.50988 13.5828 8.81322 12.7194 8.81322C10.6659 8.81322 8.98574 7.13322 8.98574 5.07988C8.98574 3.88988 9.56912 2.81655 10.4325 2.13988C10.4092 2.13988 10.3859 2.11655 10.3859 2.11655C10.1525 1.36988 9.52245 0.879883 8.75238 0.879883C7.98231 0.879883 7.35226 1.36988 7.1189 2.11655C4.552 2.97988 2.68517 5.28988 2.47515 7.97322L2.10178 12.8032C2.07845 13.2232 1.84509 13.8999 1.63508 14.2499L0.771665 15.6265C0.304956 16.3732 0.23495 17.1199 0.561646 17.7032C0.888342 18.2865 1.56507 18.6132 2.45182 18.6132H8.75238H15.0763C15.963 18.6132 16.6398 18.2865 16.9665 17.7032C17.2931 17.1199 17.1998 16.3732 16.7331 15.6265Z" fill="#E5E5E5"/>
<path d="M13.3799 7.60021C14.9969 7.60021 16.3199 6.27721 16.3199 4.66021C16.3199 3.04321 14.9969 1.72021 13.3799 1.72021C11.7629 1.72021 10.4399 3.04321 10.4399 4.66021C10.4399 6.27721 11.7629 7.60021 13.3799 7.60021Z" fill="#0F296D"/>
</svg>
