<svg width="14" height="13" viewBox="0 0 14 13" fill="none" xmlns="http://www.w3.org/2000/svg">
<path d="M12.9936 11.0117L9.63051 7.74435C9.47036 7.58794 9.29242 7.50104 9.09669 7.48366L8.90096 7.29249C9.50595 6.47566 9.84403 5.53718 9.84403 4.56394C9.84403 2.09608 7.77994 0.0800781 5.25321 0.0800781C2.74427 0.0974574 0.680176 2.11346 0.680176 4.56394C0.680176 7.0318 2.74427 9.0478 5.271 9.0478C6.19628 9.0478 7.0326 8.80449 7.76215 8.31787L7.95788 8.50904C7.97567 8.73497 8.06464 8.94353 8.22479 9.09994L11.6056 12.402C11.7836 12.5932 12.0327 12.6801 12.2996 12.6801C12.5487 12.6801 12.8156 12.5758 12.9936 12.402C13.1715 12.2282 13.2783 11.9675 13.2783 11.7068C13.2961 11.4461 13.1893 11.1855 12.9936 11.0117ZM5.21762 7.37939C3.63396 7.37939 2.33501 6.1107 2.33501 4.56394C2.33501 3.01718 3.63396 1.74849 5.21762 1.74849C6.83686 1.74849 8.10023 2.9998 8.10023 4.56394C8.10023 6.12808 6.80128 7.37939 5.21762 7.37939Z" fill="#CCCCCC"/>
</svg>
