<svg width="17" height="17" viewBox="0 0 17 17" fill="none" xmlns="http://www.w3.org/2000/svg">
<path d="M15.1018 16.8637H1.51018C1.1098 16.8632 0.725977 16.7039 0.442865 16.4208C0.159753 16.1377 0.000466295 15.7539 0 15.3535V5.28564H16.6119V15.3535C16.6115 15.7539 16.4522 16.1377 16.1691 16.4208C15.886 16.7039 15.5021 16.8632 15.1018 16.8637ZM5.03392 10.5353C4.90041 10.5353 4.77235 10.5883 4.67795 10.6827C4.58354 10.7771 4.53053 10.9052 4.53053 11.0387V11.1106C4.53053 11.2442 4.58354 11.3722 4.67795 11.4666C4.77235 11.561 4.90041 11.614 5.03392 11.614H7.76657V14.3467C7.76657 14.4802 7.81964 14.6082 7.91405 14.7026C8.00845 14.7971 8.13645 14.8501 8.26996 14.8501H8.34198C8.47549 14.8501 8.60349 14.7971 8.69789 14.7026C8.7923 14.6082 8.84537 14.4802 8.84537 14.3467V11.614H11.578C11.7115 11.614 11.8396 11.561 11.934 11.4666C12.0284 11.3722 12.0814 11.2442 12.0814 11.1106V11.0387C12.0814 10.9052 12.0284 10.7771 11.934 10.6827C11.8396 10.5883 11.7115 10.5353 11.578 10.5353H8.84537V7.80261C8.84537 7.6691 8.7923 7.54106 8.69789 7.44666C8.60349 7.35226 8.47549 7.29921 8.34198 7.29921H8.26996C8.13645 7.29921 8.00845 7.35226 7.91405 7.44666C7.81964 7.54106 7.76657 7.6691 7.76657 7.80261V10.5355L5.03392 10.5353Z" fill="white"/>
<path d="M13.0882 4.53053H0V3.52374C0 3.12322 0.159099 2.73909 0.442312 2.45588C0.725525 2.17267 1.10965 2.01357 1.51018 2.01357H2.26526V1.25848C2.26526 0.924711 2.39783 0.604614 2.63384 0.368603C2.86985 0.132592 3.18998 0 3.52374 0H4.02714C4.36091 0 4.68103 0.132592 4.91704 0.368603C5.15306 0.604614 5.28562 0.924711 5.28562 1.25848V2.01357H6.79579V1.25848C6.79579 0.924711 6.92836 0.604614 7.16437 0.368603C7.40038 0.132592 7.7205 0 8.05427 0H8.55767C8.89144 0 9.21156 0.132592 9.44757 0.368603C9.68358 0.604614 9.81615 0.924711 9.81615 1.25848V2.01357H11.3263V1.25848C11.3263 0.924711 11.4589 0.604614 11.6949 0.368603C11.9309 0.132592 12.251 0 12.5848 0H13.0882C13.422 0 13.7421 0.132592 13.9781 0.368603C14.2141 0.604614 14.3467 0.924711 14.3467 1.25848V2.01357H15.1018C15.5023 2.01357 15.8864 2.17267 16.1696 2.45588C16.4528 2.73909 16.6119 3.12322 16.6119 3.52374V4.53053H13.0882Z" fill="white"/>
</svg>
