<svg width="21" height="21" viewBox="0 0 21 21" fill="none" xmlns="http://www.w3.org/2000/svg">
<path d="M9.15597 1.67982C8.90758 1.67982 8.68149 1.79673 8.5353 1.95914C8.3891 2.12155 8.30798 2.32026 8.26924 2.52494C8.26924 2.52504 8.26924 2.52514 8.26924 2.52524L8.02072 3.83915C7.71314 3.94119 7.41419 4.06558 7.12492 4.21169L6.0184 3.45721C5.84639 3.33995 5.64849 3.2566 5.43025 3.2451C5.21179 3.23362 4.96947 3.31136 4.79406 3.48678L3.48753 4.79331C3.3119 4.9689 3.23443 5.21137 3.24577 5.42958C3.25703 5.64779 3.34027 5.84618 3.45757 6.01835L4.20878 7.12014C4.06307 7.41088 3.93931 7.71133 3.83803 8.02037L2.52537 8.2688C2.32069 8.30753 2.1216 8.38868 1.95918 8.53486C1.79677 8.68106 1.67993 8.90756 1.67993 9.15593V11.0037C1.67993 11.252 1.79677 11.4781 1.95918 11.6243C2.1216 11.7705 2.32069 11.852 2.52537 11.8907L3.84013 12.1397C3.94218 12.447 4.06632 12.7457 4.21235 13.0347L3.45757 14.1412C3.34018 14.3134 3.25711 14.5117 3.24577 14.7299C3.2345 14.9482 3.31182 15.1906 3.48753 15.3662L4.79406 16.6727C4.96968 16.8483 5.21202 16.9255 5.43025 16.9141C5.64847 16.9027 5.84656 16.8194 6.01871 16.7021L7.1205 15.9511C7.41131 16.0968 7.71193 16.2204 8.02103 16.3216L8.26947 17.6343C8.30821 17.8389 8.3894 18.038 8.53561 18.2004C8.6818 18.3629 8.90789 18.4797 9.15628 18.4797H11.0043C11.2527 18.4797 11.4788 18.3629 11.625 18.2004C11.7711 18.0381 11.8524 17.8392 11.8911 17.6346V17.6341L12.1399 16.3203C12.4475 16.2182 12.7464 16.0939 13.0357 15.9478L14.1419 16.7019C14.314 16.8193 14.5121 16.9025 14.7303 16.914C14.9485 16.9254 15.1912 16.8482 15.3668 16.6726L16.6734 15.366C16.849 15.1904 16.9263 14.9477 16.9148 14.7295C16.9034 14.5112 16.8201 14.3131 16.7027 14.141L15.9515 13.0393C16.0973 12.7485 16.2209 12.4481 16.3222 12.139L17.6349 11.8906C17.8396 11.8518 18.0387 11.7704 18.2011 11.6242C18.3635 11.478 18.4803 11.2519 18.4803 11.0035V9.15572C18.4803 8.90734 18.3635 8.68093 18.2011 8.53474C18.0388 8.38862 17.8398 8.30744 17.6352 8.26869L16.3211 8.01994C16.2191 7.71252 16.0946 7.41379 15.9485 7.12467L16.703 6.01823C16.8203 5.84614 16.9036 5.64801 16.9151 5.42977C16.9267 5.21153 16.8491 4.96883 16.6734 4.79319L15.3671 3.48666C15.1915 3.31111 14.9489 3.23351 14.7306 3.24498C14.5124 3.25651 14.3145 3.33988 14.1425 3.45709L13.0407 4.20831C12.7499 4.06262 12.4493 3.93902 12.1402 3.83778L11.8913 2.52481C11.8526 2.32015 11.7715 2.12143 11.6253 1.95901C11.4791 1.7966 11.253 1.67969 11.0046 1.67969L9.15597 1.67982ZM10.08 6.89748C11.8412 6.89748 13.2619 8.31837 13.2618 10.0796C13.2618 11.8407 11.8412 13.2617 10.08 13.2617C8.31879 13.2617 6.89789 11.8408 6.89783 10.0796C6.89783 8.31828 8.31872 6.89742 10.08 6.89748Z" fill="white"/>
</svg>
