<svg width="105" height="18" viewBox="0 0 105 18" fill="none" xmlns="http://www.w3.org/2000/svg">
<path d="M17.9849 14.0036L13.0789 8.20798L17.9292 1.51156L11.966 0L9.22092 3.64433L6.15114 0.00924185L0.800049 3.0785L5.56696 8.49553L1.04116 14.5048L6.61489 17.1295L9.57335 13.0486L12.1608 15.9886L17.9849 14.0036ZM70.0865 13.1687L64.3087 8.26339L69.8268 3.65357L65.7555 0.491975L60.5435 5.268L60.5621 0.695103L55.0532 0.639716L55.3964 15.9609L60.5899 16.1271L60.6362 11.8892L65.301 16.9436L70.0865 13.1687Z" fill="white"/>
<path d="M29.531 5.70329L29.6516 0.825716L18.4949 1.05786L19.1905 16.759L24.7735 16.4055L24.6065 11.3419L27.8802 11.4725L27.9637 7.56832H24.4859L24.421 5.5925L29.531 5.70329ZM76.096 16.2116L76.4949 0.770329L70.8284 0.658203L70.9953 16.1931L76.096 16.2116Z" fill="white"/>
<path d="M35.6613 16.2118L36.06 0.770537L30.3936 0.658412L30.5605 16.1933L35.6613 16.2118ZM86.7519 8.5881C86.6284 9.36102 86.3222 9.95456 85.8338 10.3687C85.4505 10.6958 84.9621 10.9003 84.3686 10.9807C83.6823 11.073 83.0239 11.0269 82.3931 10.8422L82.7177 5.6758C83.3175 5.52148 83.9667 5.48191 84.6653 5.55577C85.2589 5.61776 85.7287 5.80901 86.0749 6.13084C86.3594 6.40255 86.5603 6.74814 86.6778 7.16889C86.8076 7.65164 86.8324 8.12382 86.7519 8.5881ZM91.9269 8.66197C91.9578 8.32827 91.9454 7.91147 91.8898 7.41026C91.8465 6.95917 91.7754 6.52258 91.6765 6.10315C91.5529 5.5716 91.3889 5.07039 91.185 4.60083C89.9979 1.85472 87.6671 0.398576 84.1923 0.232385C81.7996 0.0965304 79.5924 0.290427 77.5707 0.816698L77.4686 15.6275C78.0621 15.7752 78.8103 15.9018 79.713 16.0073C81.5122 16.2236 83.1629 16.2395 84.6653 16.0535C86.7613 15.8003 88.4152 15.1672 89.6269 14.1529C91.1356 12.8787 91.9022 11.0493 91.9269 8.66197Z" fill="white"/>
<path d="M36.6628 5.3141L40.2983 5.0912L40.3539 16.4146L45.668 16.2115L45.3526 4.78519L49.8506 4.50689L49.6836 0.110747L36.4866 0.770235L36.6628 5.3141ZM102.258 0.602722C101.393 0.305953 100.567 0.130528 99.782 0.0738116C98.156 -0.0488532 96.6597 0.218898 95.2934 0.881024C94.2361 1.39411 93.4509 2.14197 92.9378 3.12592C92.406 4.15736 92.2793 5.24287 92.5576 6.38115C92.879 7.67902 93.7693 8.75532 95.2285 9.60737C95.4634 9.74982 95.754 9.9081 96.1002 10.0809L96.5269 10.3038L96.9534 10.5175C97.5902 10.8512 98.0446 11.1479 98.3167 11.4078C98.6382 11.7164 98.836 12.0527 98.9103 12.4181C99.0216 12.9932 98.8114 13.3058 98.2797 13.3546C97.7727 13.41 97.1729 13.2161 96.4805 12.7703L94.4866 16.2946C95.4263 16.6533 96.295 16.9224 97.0926 17.1018C98.0941 17.3366 98.9473 17.4197 99.6522 17.3524C100.944 17.2284 102.002 16.867 102.824 16.2669C103.553 15.7287 104.135 14.9743 104.567 14.0035C104.982 13.0578 105.068 12.1187 104.827 11.1849C104.574 10.2207 104.008 9.42931 103.13 8.81071C103.013 8.72365 102.818 8.60363 102.546 8.44931C102.453 8.39919 102.32 8.32796 102.147 8.23564L101.943 8.12353L101.711 7.99425C100.907 7.54976 100.283 7.16594 99.8376 6.84411C98.4713 5.87994 98.0416 5.0424 98.5486 4.33147C98.9319 3.78014 99.7604 3.72209 101.034 4.15472L102.258 0.602722Z" fill="white"/>
</svg>
